<?xml version="1.0" standalone="no"?>
<!DOCTYPE svg PUBLIC "-//W3C//DTD SVG 20010904//EN"
 "http://www.w3.org/TR/2001/REC-SVG-20010904/DTD/svg10.dtd">
<svg version="1.0" xmlns="http://www.w3.org/2000/svg"
 width="561.000000pt" height="214.000000pt" viewBox="0 0 561.000000 214.000000"
 preserveAspectRatio="xMidYMid meet">

<g transform="translate(0.000000,214.000000) scale(0.100000,-0.100000)"
fill="#fff" stroke="none">
<path d="M872 2069 c-30 -5 -96 -23 -148 -40 -586 -195 -864 -874 -584 -1429
113 -224 307 -399 543 -490 130 -51 206 -64 372 -63 130 0 163 4 250 27 375
99 667 405 745 780 l11 56 147 0 c127 0 151 3 188 21 104 50 110 199 11 259
-28 18 -51 20 -188 20 l-155 0 -18 78 c-44 188 -133 349 -271 488 -138 140
-264 215 -450 270 -77 22 -113 27 -245 30 -85 1 -179 -1 -208 -7z m442 -83
c264 -79 478 -259 597 -501 46 -94 89 -230 89 -281 0 -54 -1 -54 187 -54 l175
0 30 -30 c26 -27 30 -36 25 -67 -4 -20 -16 -46 -27 -57 -19 -19 -34 -21 -200
-24 -176 -3 -180 -4 -184 -25 -42 -204 -77 -297 -160 -420 -187 -281 -514
-444 -851 -423 -234 14 -429 99 -602 260 -130 122 -213 257 -270 445 -25 78
-27 101 -27 251 0 196 16 267 93 425 131 267 371 452 672 520 45 10 108 14
214 11 127 -3 164 -7 239 -30z"/>
<path d="M911 1825 c-294 -55 -520 -261 -607 -550 -22 -76 -27 -109 -27 -210
1 -148 22 -236 90 -368 38 -74 65 -110 139 -184 81 -80 104 -98 195 -141 127
-61 216 -82 352 -82 309 0 585 181 709 465 117 268 69 584 -122 810 -95 113
-252 212 -395 250 -86 22 -245 28 -334 10z m313 -75 c128 -32 228 -91 328
-190 72 -73 93 -102 131 -181 96 -200 103 -390 21 -593 -14 -36 -30 -64 -34
-61 -5 3 -12 -5 -15 -17 -4 -13 -18 -37 -31 -55 -13 -17 -24 -35 -24 -38 0 -3
-19 -29 -42 -56 -39 -46 -160 -129 -188 -129 -6 0 -28 -13 -48 -29 -38 -30
-59 -35 -212 -47 -128 -11 -360 26 -360 57 0 5 -5 9 -10 9 -42 0 -258 192
-317 281 -13 21 -37 90 -54 155 -50 202 -37 347 48 524 85 176 261 319 455
370 100 26 250 26 352 0z"/>
<path d="M683 1535 c-90 -45 -142 -132 -163 -268 -22 -145 29 -349 112 -453
45 -56 113 -124 129 -129 11 -4 19 -15 19 -25 0 -15 7 -19 28 -18 15 1 100 -2
188 -7 177 -8 159 -12 284 59 178 102 305 310 304 496 -1 110 -44 188 -129
233 -32 18 -57 22 -125 22 -80 0 -90 -3 -170 -42 -77 -39 -85 -41 -94 -25 -5
9 -31 40 -58 68 -101 107 -224 141 -325 89z m182 -64 c53 -24 99 -63 135 -116
l29 -42 -40 -39 c-22 -21 -56 -63 -75 -91 -19 -29 -37 -53 -40 -53 -3 0 -21
33 -40 73 -25 54 -38 98 -46 164 -6 50 -8 98 -5 107 8 21 32 20 82 -3z m-145
-43 c0 -88 27 -188 75 -284 l46 -91 -16 -64 c-20 -85 -18 -152 5 -219 10 -30
17 -56 16 -57 -1 -2 -24 11 -50 29 -176 116 -269 433 -183 622 23 51 79 116
99 116 5 0 8 -24 8 -52z m699 -60 c13 -5 22 -10 20 -12 -2 -2 -32 -25 -66 -50
-88 -64 -136 -131 -214 -293 -68 -143 -106 -206 -161 -268 -29 -33 -29 -33
-58 -17 -53 31 -79 124 -60 218 20 102 76 200 160 284 131 132 265 181 379
138z m97 -203 c-8 -138 -100 -294 -228 -390 -69 -51 -173 -95 -228 -95 l-30 0
52 69 c54 71 82 122 162 291 48 103 116 186 196 239 l45 30 18 -37 c14 -28 17
-53 13 -107z"/>
<path d="M648 1353 c-44 -111 -47 -213 -8 -300 10 -24 21 -43 23 -43 2 0 -2
23 -9 52 -18 66 -17 163 0 253 8 39 13 71 11 73 -1 2 -9 -14 -17 -35z"/>
<path d="M1272 1320 c-92 -33 -170 -97 -208 -172 -29 -58 -32 -86 -3 -38 43
72 122 140 234 202 58 32 51 34 -23 8z"/>
<path d="M2683 1274 c-50 -25 -68 -73 -67 -184 0 -100 11 -136 54 -175 29 -26
123 -29 128 -2 3 13 -3 17 -23 17 -65 0 -85 40 -85 169 0 69 4 93 20 119 18
28 25 33 53 30 27 -2 33 1 35 20 3 20 -1 22 -40 22 -24 0 -57 -8 -75 -16z"/>
<path d="M2931 1277 c-46 -23 -66 -81 -66 -192 0 -83 4 -106 21 -135 26 -45
59 -62 109 -56 47 6 79 37 94 94 14 47 14 166 1 214 -20 71 -96 108 -159 75z
m74 -47 c18 -34 22 -249 5 -281 -15 -27 -36 -24 -57 8 -25 38 -25 238 0 277
22 33 33 33 52 -4z"/>
<path d="M4463 1275 c-30 -21 -48 -82 -35 -116 6 -14 25 -37 42 -50 63 -47
100 -87 100 -108 0 -27 -43 -71 -69 -71 -25 0 -64 49 -57 73 4 15 2 16 -10 6
-40 -33 15 -119 76 -119 44 0 94 26 111 57 18 34 18 105 -1 128 -8 10 -39 33
-67 52 -55 35 -75 72 -56 102 10 15 58 21 92 10 8 -2 16 3 18 12 8 35 -102 53
-144 24z"/>
<path d="M5102 1265 c-40 -33 -52 -77 -52 -185 0 -110 22 -162 74 -180 48 -16
90 -5 120 31 30 36 41 81 40 174 -1 124 -30 174 -107 182 -36 4 -48 1 -75 -22z
m104 -92 c9 -61 -2 -211 -17 -229 -39 -47 -69 19 -69 150 0 94 10 144 33 158
19 12 45 -28 53 -79z"/>
<path d="M3188 1090 l3 -190 39 0 40 0 0 95 0 95 45 0 c40 0 45 2 45 23 0 20
-4 22 -45 19 l-45 -4 0 62 0 63 50 -5 c44 -4 50 -3 50 13 0 17 -9 19 -92 19
l-93 0 3 -190z"/>
<path d="M3458 1090 l3 -190 39 0 40 0 -6 69 c-4 38 -4 81 0 95 6 23 11 26 51
26 40 0 45 2 45 23 0 20 -4 22 -41 19 -22 -3 -44 0 -49 4 -4 5 -6 33 -3 62 l6
52 36 0 c20 0 42 -5 49 -12 9 -9 12 -6 12 15 l0 27 -92 0 -93 0 3 -190z"/>
<path d="M3725 1090 l0 -190 93 0 c92 0 92 0 92 25 0 21 -3 24 -17 16 -10 -5
-31 -11 -48 -12 l-30 -4 -3 83 -3 82 41 0 c36 0 40 3 40 24 0 22 -3 24 -40 19
l-40 -6 0 63 0 63 45 -6 c40 -6 45 -5 45 13 0 18 -7 20 -87 20 l-88 0 0 -190z"/>
<path d="M3998 1090 l3 -190 89 0 c71 0 90 3 90 14 0 8 3 22 7 31 6 16 4 16
-18 2 -13 -8 -37 -17 -54 -19 l-30 -3 -3 83 -3 82 41 0 c35 0 40 3 40 23 0 20
-4 22 -41 19 l-40 -4 3 58 3 59 40 -1 c36 -2 54 8 55 29 0 4 -42 7 -92 7 l-93
0 3 -190z"/>
<path d="M4725 1084 c0 -190 0 -195 20 -190 11 3 27 6 35 6 12 0 15 17 15 98
l0 97 43 3 42 3 0 -103 0 -103 38 0 37 0 0 192 0 193 -38 0 -38 0 7 -65 7 -65
-53 0 -53 0 5 65 6 65 -37 0 -36 0 0 -196z"/>
<path d="M5375 1090 l0 -190 35 0 35 0 0 67 0 68 39 6 c47 8 72 35 81 89 8 50
-1 92 -26 125 -19 23 -27 25 -92 25 l-72 0 0 -190z m114 128 c22 -63 4 -148
-30 -148 -17 0 -19 8 -19 88 0 49 3 91 6 95 12 12 33 -5 43 -35z"/>
</g>
</svg>
